<svg width="91" height="39" viewBox="0 0 91 39" fill="none" xmlns="http://www.w3.org/2000/svg">
<path d="M0 0H31.7458V31.5714H0V0Z" fill="#1E3DAF"/>
<path d="M6.22032 22.0348L7.6774 21.7264V9.918L6.06531 9.60968V7.8009H10.6846V14.1316C11.0359 13.6178 11.4665 13.2204 11.9763 12.9395C12.4861 12.6517 13.051 12.5078 13.6711 12.5078C14.8423 12.5078 15.7585 12.8949 16.4199 13.6692C17.0882 14.4365 17.4223 15.6252 17.4223 17.2353V21.7264L18.869 22.0348V23.8333H13.1027V22.0348L14.4048 21.7264V17.2148C14.4048 16.3515 14.2498 15.7417 13.9398 15.3854C13.6366 15.0223 13.1819 14.8408 12.5757 14.8408C12.1554 14.8408 11.7869 14.9161 11.47 15.0669C11.1599 15.2176 10.8981 15.43 10.6846 15.704V21.7264L11.9866 22.0348V23.8333H6.22032V22.0348Z" fill="white"/>
<path d="M19.7474 22.0348L21.2045 21.7264V14.8305L19.5924 14.5222V12.7134H24.222V21.7264L25.6688 22.0348V23.8333H19.7474V22.0348ZM24.222 10.0516H21.2045V7.8009H24.222V10.0516Z" fill="white"/>
<path d="M43.9907 9.1793C45.7612 9.1793 47.1425 9.52187 48.1346 10.207C49.1266 10.8922 49.6227 11.9164 49.6227 13.2799C49.6227 13.9719 49.4367 14.5919 49.0646 15.14C48.6995 15.6813 48.1656 16.089 47.4629 16.363C48.3654 16.5549 49.0405 16.966 49.4883 17.5963C49.943 18.2266 50.1704 18.9563 50.1704 19.7853C50.1704 21.2173 49.695 22.3032 48.7443 23.0432C47.7936 23.7763 46.4467 24.1428 44.7037 24.1428H37.3046V22.3443L38.9064 22.036V11.2964L37.3046 10.9881V9.1793H38.9064H43.9907ZM41.9239 17.5243V21.8408H44.7037C45.5029 21.8408 46.1126 21.6695 46.5328 21.3269C46.9531 20.9775 47.1632 20.4636 47.1632 19.7853C47.1632 19.0522 46.9841 18.4938 46.6258 18.1101C46.2676 17.7196 45.7027 17.5243 44.9311 17.5243H41.9239ZM41.9239 15.4484H44.094C44.9001 15.4484 45.5201 15.2839 45.9541 14.9551C46.3881 14.6262 46.6052 14.1466 46.6052 13.5163C46.6052 12.8243 46.3847 12.3138 45.9438 11.985C45.5098 11.6561 44.8587 11.4917 43.9907 11.4917H41.9239V15.4484Z" fill="white"/>
<path d="M51.5964 22.3443L53.0432 22.036V15.14L51.4414 14.8317V13.023H55.854L55.9884 14.6467C56.2502 14.0712 56.5877 13.6225 57.0011 13.3004C57.4144 12.9784 57.8933 12.8174 58.4375 12.8174C58.596 12.8174 58.7613 12.8311 58.9335 12.8585C59.1127 12.8791 59.2608 12.9065 59.3779 12.9407L59.0575 15.6745L57.8175 15.6436C57.3766 15.6436 57.0114 15.7293 56.7221 15.9006C56.4327 16.0718 56.2123 16.3151 56.0607 16.6302V22.036L57.5075 22.3443V24.1428H51.5964V22.3443Z" fill="white"/>
<path d="M67.1903 24.1428C67.1077 23.9578 67.0353 23.7694 66.9733 23.5776C66.9113 23.3789 66.8631 23.1802 66.8287 22.9815C66.4704 23.3926 66.0329 23.7249 65.5162 23.9784C65.0064 24.2319 64.4208 24.3587 63.7595 24.3587C62.6641 24.3587 61.7926 24.064 61.145 23.4748C60.5043 22.8787 60.1839 22.0703 60.1839 21.0494C60.1839 20.008 60.6042 19.203 61.4447 18.6343C62.2852 18.0656 63.5184 17.7813 65.1442 17.7813H66.684V16.6919C66.684 16.1575 66.529 15.743 66.219 15.4484C65.9089 15.1538 65.4508 15.0064 64.8445 15.0064C64.5001 15.0064 64.1935 15.0476 63.9248 15.1298C63.6561 15.2051 63.4391 15.2976 63.2738 15.4073L63.0774 16.5994H60.804L60.8143 14.1329C61.3655 13.7629 61.9958 13.4512 62.7054 13.1977C63.4219 12.9442 64.2004 12.8174 65.0409 12.8174C66.4256 12.8174 67.5486 13.1566 68.4097 13.8349C69.2778 14.5063 69.7118 15.4655 69.7118 16.7125V21.3063C69.7118 21.4776 69.7118 21.6386 69.7118 21.7894C69.7187 21.9401 69.7325 22.084 69.7532 22.221L70.6729 22.3443V24.1428H67.1903ZM64.5759 22.1388C65.0306 22.1388 65.4439 22.0429 65.8159 21.851C66.188 21.6523 66.4773 21.4057 66.684 21.1111V19.4153H65.1442C64.5035 19.4153 64.0178 19.5661 63.6871 19.8675C63.3565 20.1622 63.1911 20.5184 63.1911 20.9364C63.1911 21.3132 63.3117 21.6078 63.5528 21.8202C63.8008 22.0326 64.1418 22.1388 64.5759 22.1388Z" fill="white"/>
<path d="M71.6133 22.3443L73.0703 22.036V15.14L71.4583 14.8317V13.023H76.0879V22.036L77.5346 22.3443V24.1428H71.6133V22.3443ZM76.0879 10.3612H73.0703V8.11047H76.0879V10.3612Z" fill="white"/>
<path d="M78.3613 22.3443L79.8081 22.036V15.14L78.2063 14.8317V13.023H82.6189L82.7532 14.6159C83.1253 14.0472 83.5834 13.6053 84.1276 13.2902C84.6719 12.975 85.2816 12.8174 85.9568 12.8174C87.0866 12.8174 87.9684 13.1703 88.6022 13.876C89.2361 14.5817 89.553 15.6882 89.553 17.1955V22.036L90.9997 22.3443V24.1428H85.2334V22.3443L86.5251 22.036V17.2058C86.5251 16.459 86.3736 15.9314 86.0704 15.6231C85.7673 15.3079 85.3092 15.1503 84.696 15.1503C84.2964 15.1503 83.9382 15.2325 83.6213 15.397C83.3044 15.5546 83.0391 15.7807 82.8256 16.0753V22.036L84.045 22.3443V24.1428H78.3613V22.3443Z" fill="white"/>
<path d="M0.00012064 39L0.000121293 31.5714L7.46973 31.5714L0.00012064 39Z" fill="#1E3DAF"/>
</svg>
