<svg width="93" height="40" viewBox="0 0 93 40" fill="none" xmlns="http://www.w3.org/2000/svg">
<path fill-rule="evenodd" clip-rule="evenodd" d="M32.3809 0H0V32.3809H0.0020494L0.00204873 39.9998L7.62086 32.3809H32.3809V0Z" fill="#1E3DAF"/>
<path d="M6.3417 22.6L7.82794 22.2838V10.1726L6.18359 9.85638V8.00122H10.8953V14.4943C11.2537 13.9672 11.6929 13.5597 12.2129 13.2716C12.7329 12.9764 13.3091 12.8288 13.9415 12.8288C15.1361 12.8288 16.0708 13.2259 16.7454 14.0199C17.427 14.807 17.7678 16.0262 17.7678 17.6776V22.2838L19.2435 22.6V24.4447H13.3618V22.6L14.6899 22.2838V17.6565C14.6899 16.7711 14.5318 16.1456 14.2156 15.7802C13.9064 15.4078 13.4426 15.2216 12.8242 15.2216C12.3956 15.2216 12.0196 15.2989 11.6964 15.4535C11.3801 15.6081 11.1131 15.8259 10.8953 16.107V22.2838L12.2234 22.6V24.4447H6.3417V22.6Z" fill="white"/>
<path d="M20.1395 22.6L21.6257 22.2838V15.211L19.9813 14.8948V13.0397H24.7036V22.2838L26.1793 22.6V24.4447H20.1395V22.6ZM24.7036 10.3096H21.6257V8.00122H24.7036V10.3096Z" fill="white"/>
<path d="M44.8738 9.41337C46.6797 9.41337 48.0887 9.76472 49.1006 10.4674C50.1125 11.1701 50.6184 12.2207 50.6184 13.6191C50.6184 14.3288 50.4287 14.9648 50.0492 15.527C49.6768 16.0821 49.1322 16.5002 48.4154 16.7813C49.336 16.9781 50.0247 17.3997 50.4814 18.0462C50.9452 18.6927 51.1771 19.4411 51.1771 20.2913C51.1771 21.76 50.6922 22.8738 49.7225 23.6327C48.7527 24.3846 47.3789 24.7606 45.6011 24.7606H38.054V22.916L39.6878 22.5997V11.5847L38.054 11.2685V9.41337H39.6878H44.8738ZM42.7656 17.9724V22.3995H45.6011C46.4162 22.3995 47.0381 22.2238 47.4668 21.8724C47.8954 21.5141 48.1098 20.987 48.1098 20.2913C48.1098 19.5394 47.9271 18.9667 47.5616 18.5732C47.1962 18.1727 46.62 17.9724 45.833 17.9724H42.7656ZM42.7656 15.8432H44.9792C45.8014 15.8432 46.4338 15.6745 46.8765 15.3372C47.3192 14.9999 47.5406 14.508 47.5406 13.8615C47.5406 13.1518 47.3157 12.6283 46.866 12.291C46.4233 11.9537 45.7592 11.785 44.8738 11.785H42.7656V15.8432Z" fill="#2A2F37"/>
<path d="M52.6317 22.916L54.1074 22.5997V15.527L52.4736 15.2107V13.3556H56.9745L57.1115 15.021C57.3785 14.4307 57.7229 13.9705 58.1445 13.6402C58.5661 13.3099 59.0545 13.1448 59.6096 13.1448C59.7713 13.1448 59.9399 13.1588 60.1156 13.1869C60.2983 13.208 60.4494 13.2361 60.5688 13.2713L60.2421 16.0751L58.9772 16.0435C58.5275 16.0435 58.155 16.1313 57.8599 16.307C57.5647 16.4826 57.3399 16.7321 57.1853 17.0554V22.5997L58.661 22.916V24.7606H52.6317V22.916Z" fill="#2A2F37"/>
<path d="M68.5376 24.7606C68.4533 24.5709 68.3795 24.3776 68.3162 24.1809C68.253 23.9771 68.2038 23.7733 68.1687 23.5695C67.8033 23.9911 67.357 24.3319 66.83 24.5919C66.31 24.8519 65.7127 24.9819 65.0381 24.9819C63.9208 24.9819 63.0318 24.6798 62.3713 24.0754C61.7178 23.4641 61.391 22.6349 61.391 21.5878C61.391 20.5197 61.8197 19.694 62.677 19.1108C63.5343 18.5275 64.7921 18.2359 66.4505 18.2359H68.0211V17.1186C68.0211 16.5705 67.863 16.1453 67.5468 15.8432C67.2305 15.541 66.7632 15.3899 66.1449 15.3899C65.7935 15.3899 65.4808 15.4321 65.2067 15.5164C64.9327 15.5937 64.7113 15.6886 64.5427 15.801L64.3424 17.0237H62.0235L62.034 14.494C62.5962 14.1145 63.2391 13.7948 63.9629 13.5348C64.6938 13.2748 65.4878 13.1448 66.3451 13.1448C67.7576 13.1448 68.903 13.4926 69.7814 14.1883C70.6668 14.877 71.1095 15.8607 71.1095 17.1397V21.8514C71.1095 22.027 71.1095 22.1922 71.1095 22.3468C71.1165 22.5014 71.1306 22.6489 71.1517 22.7895L72.0898 22.916V24.7606H68.5376ZM65.8708 22.7052C66.3346 22.7052 66.7562 22.6068 67.1357 22.41C67.5151 22.2062 67.8103 21.9533 68.0211 21.6511V19.9119H66.4505C65.797 19.9119 65.3016 20.0665 64.9643 20.3757C64.627 20.6778 64.4584 21.0432 64.4584 21.4719C64.4584 21.8584 64.5813 22.1606 64.8273 22.3784C65.0803 22.5962 65.4281 22.7052 65.8708 22.7052Z" fill="#2A2F37"/>
<path d="M73.049 22.916L74.5352 22.5997V15.527L72.8909 15.2107V13.3556H77.6131V22.5997L79.0888 22.916V24.7606H73.049V22.916ZM77.6131 10.6255H74.5352V8.31714H77.6131V10.6255Z" fill="#2A2F37"/>
<path d="M79.9321 22.916L81.4078 22.5997V15.527L79.774 15.2107V13.3556H84.2748L84.4119 14.9894C84.7913 14.4061 85.2586 13.9529 85.8138 13.6296C86.3689 13.3064 86.9908 13.1448 87.6795 13.1448C88.8319 13.1448 89.7314 13.5067 90.3779 14.2305C91.0244 14.9542 91.3476 16.0891 91.3476 17.6351V22.5997L92.8233 22.916V24.7606H86.9416V22.916L88.2592 22.5997V17.6456C88.2592 16.8797 88.1046 16.3386 87.7954 16.0224C87.4862 15.6991 87.0189 15.5375 86.3935 15.5375C85.9859 15.5375 85.6205 15.6218 85.2973 15.7905C84.974 15.9521 84.7035 16.184 84.4856 16.4862V22.5997L85.7294 22.916V24.7606H79.9321V22.916Z" fill="#2A2F37"/>
</svg>
